# xmcd
#
# Track frame offsets:
#	150
#	11741
#	23220
#	35476
#	48530
#	66366
#	78584
#	91927
#	104482
#	115749
#
# Disc length: 1691 seconds
#
# Revision: 1
# Processed by: cddbd v1.5.2PL0 Copyright (c) Steve Scherf et al.
# Submitted via: audiograbber 1.83.01
#
DISCID=8006990a
DTITLE=Hank Thompson - Greatest Hits CD 1
DYEAR=2005
DGENRE=Country
TTITLE0=Who Left The Door To Heaven Open
TTITLE1=When My Blue Moon Turns To Gold
TTITLE2=There's A Honky Tonk Angel
TTITLE3=I Recall A Gypsy Women
TTITLE4=Mamma Don't 'Low
TTITLE5=Wait A Little Bit Longer Baby
TTITLE6=Loving On A Back Street
TTITLE7=Whatever's Left
TTITLE8=Fair Weather Love
TTITLE9=Red Necks, White Socks N Blue Ribbon Beer
EXTD=
EXTT0=
EXTT1=
EXTT2=
EXTT3=
EXTT4=
EXTT5=
EXTT6=
EXTT7=
EXTT8=
EXTT9=
PLAYORDER=
